# xmcd
#
# Track frame offsets: 
#        183
#        12185
#        24450
#        40353
#        59015
#        75770
#        93510
#        106738
#        126378
#        141908
#        159283
#        170385
#        197018
#        212850
#        228873
#
# Disc length: 3352 seconds
#
# Revision: 1
# Processed by: cddbd v1.5.2PL0 Copyright (c) Steve Scherf et al.
# Submitted via: ExactAudioCopy v0.95b4
#
DISCID=be0d160f
DTITLE=Various Artist - West Coast
DYEAR=1990
DGENRE=
TTITLE0=Buffalo Springfield - For what it's worth
TTITLE1=Byrds - Full circle
TTITLE2=Randy Newman - I love L.A.
TTITLE3=America - A horse with no name
TTITLE4=Nicolette Larson - Lotta love
TTITLE5=The Doobie Brothers - Takin' it to the streets
TTITLE6=Little Feat - Willing
TTITLE7=Carly Simon - You are so vain
TTITLE8=The mama's and the papa's - Monday monday
TTITLE9=Ry Cooder - Little sister
TTITLE10=Linda Ronstadt - It's so easy
TTITLE11=Jackson Browne - The pretender
TTITLE12=Rickie Lee Jones - Chuck E's in love
TTITLE13=Eagles - Desperado
TTITLE14=Joni Mitchell - Coyote
EXTD=
EXTT0=
EXTT1=
EXTT2=
EXTT3=
EXTT4=
EXTT5=
EXTT6=
EXTT7=
EXTT8=
EXTT9=
EXTT10=
EXTT11=
EXTT12=
EXTT13=
EXTT14=
PLAYORDER=
